<?xml version="1.0" encoding="utf-8"?>
<!-- Generator: Adobe Illustrator 16.0.0, SVG Export Plug-In . SVG Version: 6.00 Build 0)  -->
<!DOCTYPE svg PUBLIC "-//W3C//DTD SVG 1.1//EN" "http://www.w3.org/Graphics/SVG/1.1/DTD/svg11.dtd">
<svg version="1.1" id="Layer_1" xmlns="http://www.w3.org/2000/svg" xmlns:xlink="http://www.w3.org/1999/xlink" x="0px" y="0px"
	 width="2800px" height="2800px" viewBox="0 0 2800 2800" enable-background="new 0 0 2800 2800" xml:space="preserve">
<g>
	<rect fill="#FFFFFF" width="2800" height="2800"/>
	<g>
		<g>
			<g>
				<rect x="774.9" y="875.2" fill="#FFD7D5" width="269.8" height="87.8"/>
				<rect x="1062.9" y="875.2" fill="#FFD7D5" width="269.8" height="87.8"/>
				<rect x="1354.9" y="875.2" fill="#FFD7D5" width="269.8" height="87.8"/>
				<rect x="1642.9" y="875.2" fill="#FFD7D5" width="269.8" height="87.8"/>
				<rect x="909.8" y="761" fill="#FFD7D5" width="269.8" height="87.8"/>
				<rect x="1197.8" y="761" fill="#FFD7D5" width="269.8" height="87.8"/>
				<rect x="1489.8" y="761" fill="#FFD7D5" width="269.8" height="87.8"/>
				<rect x="1777.8" y="761" fill="#FFD7D5" width="269.8" height="87.8"/>
				<rect x="774.9" y="1104.7" fill="#FFD7D5" width="269.8" height="87.8"/>
				<rect x="1062.9" y="1104.7" fill="#FFD7D5" width="269.8" height="87.8"/>
				<rect x="1354.9" y="1104.7" fill="#FFD7D5" width="269.8" height="87.8"/>
				<rect x="1642.9" y="1104.7" fill="#FFD7D5" width="269.8" height="87.8"/>
				<rect x="909.8" y="990.5" fill="#FFD7D5" width="269.8" height="87.8"/>
				<rect x="1197.8" y="990.5" fill="#FFD7D5" width="269.8" height="87.8"/>
				<rect x="1489.8" y="990.5" fill="#FFD7D5" width="269.8" height="87.8"/>
				<rect x="1777.8" y="990.5" fill="#FFD7D5" width="269.8" height="87.8"/>
				<rect x="774.9" y="1330.2" fill="#FFD7D5" width="269.8" height="87.8"/>
				<rect x="1062.9" y="1330.2" fill="#FFD7D5" width="269.8" height="87.8"/>
				<rect x="1354.9" y="1330.2" fill="#FFD7D5" width="269.8" height="87.8"/>
				<rect x="1642.9" y="1330.2" fill="#FFD7D5" width="269.8" height="87.8"/>
				<rect x="909.8" y="1216.1" fill="#FFD7D5" width="269.8" height="87.8"/>
				<rect x="1197.8" y="1216.1" fill="#FFD7D5" width="269.8" height="87.8"/>
				<rect x="1489.8" y="1216.1" fill="#FFD7D5" width="269.8" height="87.8"/>
				<rect x="1777.8" y="1216.1" fill="#FFD7D5" width="269.8" height="87.8"/>
				<rect x="774.9" y="1559.7" fill="#FFD7D5" width="269.8" height="87.8"/>
				<rect x="1062.9" y="1559.7" fill="#FFD7D5" width="269.8" height="87.8"/>
				<rect x="1354.9" y="1559.7" fill="#FFD7D5" width="269.8" height="87.8"/>
				<rect x="1642.9" y="1559.7" fill="#FFD7D5" width="269.8" height="87.8"/>
				<rect x="909.8" y="1445.5" fill="#FFD7D5" width="269.8" height="87.8"/>
				<rect x="1197.8" y="1445.5" fill="#FFD7D5" width="269.8" height="87.8"/>
				<rect x="1489.8" y="1445.5" fill="#FFD7D5" width="269.8" height="87.8"/>
				<rect x="1777.8" y="1445.5" fill="#FFD7D5" width="269.8" height="87.8"/>
				<rect x="774.9" y="1793.6" fill="#FFD7D5" width="269.8" height="87.8"/>
				<rect x="1062.9" y="1793.6" fill="#FFD7D5" width="269.8" height="87.8"/>
				<rect x="1354.9" y="1793.6" fill="#FFD7D5" width="269.8" height="87.8"/>
				<rect x="1642.9" y="1793.6" fill="#FFD7D5" width="269.8" height="87.8"/>
				<rect x="909.8" y="1679.5" fill="#FFD7D5" width="269.8" height="87.8"/>
				<rect x="1197.8" y="1679.5" fill="#FFD7D5" width="269.8" height="87.8"/>
				<rect x="1489.8" y="1679.5" fill="#FFD7D5" width="269.8" height="87.8"/>
				<rect x="1777.8" y="1679.5" fill="#FFD7D5" width="269.8" height="87.8"/>
				<rect x="774.9" y="2023.1" fill="#FFD7D5" width="269.8" height="87.8"/>
				<rect x="1062.9" y="2023.1" fill="#FFD7D5" width="269.8" height="87.8"/>
				<rect x="1354.9" y="2023.1" fill="#FFD7D5" width="269.8" height="87.8"/>
				<rect x="1642.9" y="2023.1" fill="#FFD7D5" width="269.8" height="87.8"/>
				<rect x="909.8" y="1908.9" fill="#FFD7D5" width="269.8" height="87.8"/>
				<rect x="1197.8" y="1908.9" fill="#FFD7D5" width="269.8" height="87.8"/>
				<rect x="1489.8" y="1908.9" fill="#FFD7D5" width="269.8" height="87.8"/>
				<rect x="1777.8" y="1908.9" fill="#FFD7D5" width="269.8" height="87.8"/>
			</g>
			<g>
				<g>
					<path fill="#303E5C" d="M2223.2,534.6h-76.4c-3.3,0-6-2.7-6-6s2.7-6,6-6h76.4c3.3,0,6,2.7,6,6S2226.6,534.6,2223.2,534.6z"/>
				</g>
				<g>
					<path fill="#303E5C" d="M2118.5,534.6h-38.2c-3.3,0-6-2.7-6-6s2.7-6,6-6h38.2c3.3,0,6,2.7,6,6S2121.8,534.6,2118.5,534.6z"/>
				</g>
				<g>
					<path fill="#303E5C" d="M2430.9,534.6h-183.5c-3.3,0-6-2.7-6-6s2.7-6,6-6h183.5c3.3,0,6,2.7,6,6S2434.2,534.6,2430.9,534.6z"/>
				</g>
			</g>
			<g>
				<path fill="#303E5C" d="M2408.7,2388.2h-76.4c-3.3,0-6-2.7-6-6s2.7-6,6-6h76.4c3.3,0,6,2.7,6,6S2412,2388.2,2408.7,2388.2z"/>
			</g>
			<g>
				<path fill="#303E5C" d="M2475.3,2388.2h-38.2c-3.3,0-6-2.7-6-6s2.7-6,6-6h38.2c3.3,0,6,2.7,6,6S2478.6,2388.2,2475.3,2388.2z"/>
			</g>
			<g>
				<path fill="#303E5C" d="M2308.1,2388.2h-183.5c-3.3,0-6-2.7-6-6s2.7-6,6-6h183.5c3.3,0,6,2.7,6,6S2311.5,2388.2,2308.1,2388.2z"
					/>
			</g>
			<g>
				<g>
					<path fill="#303E5C" d="M2435.7,1380.1h-76.4c-3.3,0-6-2.7-6-6s2.7-6,6-6h76.4c3.3,0,6,2.7,6,6S2439,1380.1,2435.7,1380.1z"/>
				</g>
				<g>
					<path fill="#303E5C" d="M2330.9,1380.1h-38.2c-3.3,0-6-2.7-6-6s2.7-6,6-6h38.2c3.3,0,6,2.7,6,6S2334.2,1380.1,2330.9,1380.1z"
						/>
				</g>
			</g>
			<g>
				<g>
					<path fill="#303E5C" d="M2237.2,2442.2H2199c-3.3,0-6-2.7-6-6s2.7-6,6-6h38.2c3.3,0,6,2.7,6,6S2240.6,2442.2,2237.2,2442.2z"/>
				</g>
				<g>
					<path fill="#303E5C" d="M2165.7,2442.2h-183.5c-3.3,0-6-2.7-6-6s2.7-6,6-6h183.5c3.3,0,6,2.7,6,6S2169,2442.2,2165.7,2442.2z"
						/>
				</g>
			</g>
			<g>
				<g>
					<path fill="#303E5C" d="M2554,2097.8h-38.2c-3.3,0-6-2.7-6-6s2.7-6,6-6h38.2c3.3,0,6,2.7,6,6S2557.3,2097.8,2554,2097.8z"/>
				</g>
				<g>
					<path fill="#303E5C" d="M2355.7,2097.8h-38.2c-3.3,0-6-2.7-6-6s2.7-6,6-6h38.2c3.3,0,6,2.7,6,6S2359,2097.8,2355.7,2097.8z"/>
				</g>
				<g>
					<path fill="#303E5C" d="M2482.4,2097.8h-91.7c-3.3,0-6-2.7-6-6s2.7-6,6-6h91.7c3.3,0,6,2.7,6,6S2485.7,2097.8,2482.4,2097.8z"
						/>
				</g>
			</g>
			<g>
				<g>
					<path fill="#303E5C" d="M599.6,534.6H676c3.3,0,6-2.7,6-6s-2.7-6-6-6h-76.4c-3.3,0-6,2.7-6,6S596.3,534.6,599.6,534.6z"/>
				</g>
				<g>
					<path fill="#303E5C" d="M704.4,534.6h38.2c3.3,0,6-2.7,6-6s-2.7-6-6-6h-38.2c-3.3,0-6,2.7-6,6S701.1,534.6,704.4,534.6z"/>
				</g>
				<g>
					<path fill="#303E5C" d="M392,534.6h183.5c3.3,0,6-2.7,6-6s-2.7-6-6-6H392c-3.3,0-6,2.7-6,6S388.6,534.6,392,534.6z"/>
				</g>
			</g>
			<g>
				<path fill="#303E5C" d="M414.2,2388.2h76.4c3.3,0,6-2.7,6-6s-2.7-6-6-6h-76.4c-3.3,0-6,2.7-6,6S410.8,2388.2,414.2,2388.2z"/>
			</g>
			<g>
				<path fill="#303E5C" d="M347.6,2388.2h38.2c3.3,0,6-2.7,6-6s-2.7-6-6-6h-38.2c-3.3,0-6,2.7-6,6S344.3,2388.2,347.6,2388.2z"/>
			</g>
			<g>
				<path fill="#303E5C" d="M514.7,2388.2h183.5c3.3,0,6-2.7,6-6s-2.7-6-6-6H514.7c-3.3,0-6,2.7-6,6S511.4,2388.2,514.7,2388.2z"/>
			</g>
			<g>
				<g>
					<path fill="#303E5C" d="M387.2,1380.1h76.4c3.3,0,6-2.7,6-6s-2.7-6-6-6h-76.4c-3.3,0-6,2.7-6,6S383.9,1380.1,387.2,1380.1z"/>
				</g>
				<g>
					<path fill="#303E5C" d="M492,1380.1h38.2c3.3,0,6-2.7,6-6s-2.7-6-6-6H492c-3.3,0-6,2.7-6,6S488.7,1380.1,492,1380.1z"/>
				</g>
			</g>
			<g>
				<g>
					<path fill="#303E5C" d="M585.6,2442.2h38.2c3.3,0,6-2.7,6-6s-2.7-6-6-6h-38.2c-3.3,0-6,2.7-6,6S582.3,2442.2,585.6,2442.2z"/>
				</g>
				<g>
					<path fill="#303E5C" d="M657.2,2442.2h183.5c3.3,0,6-2.7,6-6s-2.7-6-6-6H657.2c-3.3,0-6,2.7-6,6S653.9,2442.2,657.2,2442.2z"/>
				</g>
			</g>
			<g>
				<g>
					<path fill="#303E5C" d="M268.9,2097.8h38.2c3.3,0,6-2.7,6-6s-2.7-6-6-6h-38.2c-3.3,0-6,2.7-6,6S265.6,2097.8,268.9,2097.8z"/>
				</g>
				<g>
					<path fill="#303E5C" d="M467.1,2097.8h38.2c3.3,0,6-2.7,6-6s-2.7-6-6-6h-38.2c-3.3,0-6,2.7-6,6S463.8,2097.8,467.1,2097.8z"/>
				</g>
				<g>
					<path fill="#303E5C" d="M340.5,2097.8h91.7c3.3,0,6-2.7,6-6s-2.7-6-6-6h-91.7c-3.3,0-6,2.7-6,6S337.1,2097.8,340.5,2097.8z"/>
				</g>
			</g>
			<g>
				<g>
					<path fill="#303E5C" d="M1767.6,1179.8h-38.2c-3.3,0-6-2.7-6-6s2.7-6,6-6h38.2c3.3,0,6,2.7,6,6S1770.9,1179.8,1767.6,1179.8z"
						/>
				</g>
				<g>
					<path fill="#303E5C" d="M1569.4,1179.8h-38.2c-3.3,0-6-2.7-6-6s2.7-6,6-6h38.2c3.3,0,6,2.7,6,6S1572.7,1179.8,1569.4,1179.8z"
						/>
				</g>
				<g>
					<path fill="#303E5C" d="M1696,1179.8h-91.7c-3.3,0-6-2.7-6-6s2.7-6,6-6h91.7c3.3,0,6,2.7,6,6S1699.3,1179.8,1696,1179.8z"/>
				</g>
			</g>
		</g>
		<g>
			<ellipse fill="#F6E3D2" cx="1385.8" cy="2617.6" rx="373" ry="53.2"/>
			<g>
				<g>
					<g>
						<rect x="1336.6" y="670" fill="#FCE3E0" width="132.6" height="241.2"/>
						<path fill="#282F39" d="M1475.2,917.2h-144.6V664h144.6V917.2z M1342.6,905.2h120.6V676h-120.6V905.2z"/>
					</g>
					<g>
						<path fill="#FCE3E0" d="M1395.2,302.1c127.9,0,231.6,101.4,231.6,226.5c0,125.1-103.7,226.5-231.6,226.5
							c-127.9,0-231.7-101.4-231.7-226.5C1163.5,403.5,1267.3,302.1,1395.2,302.1z"/>
						<path fill="#282F39" d="M1395.2,761.1c-63.5,0-123.1-24.2-168-68c-44.9-43.9-69.7-102.3-69.7-164.4
							c0-62.1,24.7-120.5,69.7-164.4c44.9-43.9,104.5-68,168-68c63.5,0,123.1,24.2,168,68c44.9,43.9,69.7,102.3,69.7,164.4
							c0,62.1-24.7,120.5-69.7,164.4C1518.3,736.9,1458.7,761.1,1395.2,761.1z M1395.2,308.1c-60.3,0-117,23-159.6,64.6
							c-42.6,41.6-66,97-66,155.9c0,58.9,23.5,114.2,66,155.8c42.6,41.7,99.3,64.6,159.6,64.6c60.3,0,117-22.9,159.6-64.6
							c42.6-41.6,66-97,66-155.8c0-58.9-23.5-114.2-66-155.9C1512.2,331.1,1455.5,308.1,1395.2,308.1z"/>
					</g>
					<g>
						<path fill="#282F39" d="M1306.3,513.9c0.4-0.8,0.6-1.8,0.6-2.7c0-5.2-1.9-9.8-5.6-13.1c-10.1-9.2-30.8-7.2-49-5.5
							c-5.8,0.6-13.6,1.3-16.3,0.9c-2.4-1.7-5.7-1.8-8.1,0.1c-2.9,2.3-3.4,6.5-1.1,9.4c4,5.1,11.6,4.4,26.8,2.9
							c3-0.3,6.5-0.6,10.2-0.9c-2.4,4.4-3.8,9.5-3.8,15.1c0,15.4,10.5,27.9,23.5,27.9c13,0,23.5-12.5,23.5-27.9
							C1307,517.9,1306.7,515.9,1306.3,513.9z"/>
					</g>
					<g>
						<path fill="#FFF1F1" d="M1296.3,522.9c0,5.6-2.9,10.1-6.4,10.1c-3.6,0-6.5-4.5-6.5-10.1c0-5.6,2.9-10.1,6.5-10.1
							C1293.5,512.8,1296.3,517.3,1296.3,522.9z"/>
					</g>
					<g>
						<path fill="#282F39" d="M1566,493.6c-2.4-1.9-5.7-1.9-8.1-0.1c-2.7,0.4-10.5-0.3-16.3-0.9c-18.2-1.8-38.9-3.8-49,5.5
							c-3.7,3.3-5.6,7.9-5.6,13.1c0,1,0.2,1.9,0.6,2.8c-0.4,2-0.6,4-0.6,6.2c0,15.4,10.5,27.9,23.5,27.9c13,0,23.5-12.5,23.5-27.9
							c0-5.6-1.4-10.7-3.8-15.1c3.7,0.3,7.2,0.6,10.2,0.9c15.1,1.5,22.8,2.2,26.8-2.9C1569.4,500.1,1568.9,495.8,1566,493.6z"/>
					</g>
					<g>
						<path fill="#FFF1F1" d="M1497.6,522.9c0,5.6,2.9,10.1,6.4,10.1c3.6,0,6.4-4.5,6.4-10.1c0-5.6-2.9-10.1-6.4-10.1
							C1500.5,512.8,1497.6,517.3,1497.6,522.9z"/>
					</g>
					<g>
						<path fill="#282F39" d="M1394.3,646c-22,0-42.6-2.8-58-8c-24.8-8.3-30-20.5-30-29.2c0-3.7,3-6.7,6.7-6.7s6.7,3,6.7,6.7
							c0,13.1,33.5,23.8,74.6,23.8c41.1,0,74.6-10.7,74.6-23.8c0-3.7,3-6.7,6.7-6.7c3.7,0,6.7,3,6.7,6.7
							C1482.3,636.3,1434.9,646,1394.3,646z"/>
					</g>
					<g>
						<path fill="#F39DA3" d="M1270.7,612c0,12.6-10.2,22.8-22.8,22.8c-12.6,0-22.8-10.2-22.8-22.8c0-12.6,10.2-22.8,22.8-22.8
							C1260.5,589.2,1270.7,599.4,1270.7,612z"/>
					</g>
					<g>
						<path fill="#F39DA3" d="M1556.7,612c0,12.6-10.2,22.8-22.8,22.8c-12.6,0-22.8-10.2-22.8-22.8c0-12.6,10.2-22.8,22.8-22.8
							C1546.5,589.2,1556.7,599.4,1556.7,612z"/>
					</g>
					<g>
						<path fill="#B04F00" d="M1625.9,321.4c-56.8-64.7-177.9-101.2-304.9-58.2c-270,2.1-157.5,296.5-157.5,296.5
							c-31-116.6,72.5-166.1,90.2-180.3c0,0,228.5-52.5,339.8,32c24.3,29.1,42.2,88.3,33.2,121.5
							C1626.8,532.9,1690.7,395,1625.9,321.4z"/>
						<path fill="#282F39" d="M1157.9,561.8c-0.6-1.5-14.1-37.3-20.4-84.4c-8.5-63,0.4-115.8,25.6-152.7c30.1-44,82.9-66.8,157-67.5
							c36.8-12.4,74.4-18.6,111.9-18.6c40.5,0,80.3,7.6,115.4,21.9c33.7,13.8,62.4,33.5,83.1,57c15.6,17.7,25.3,40.3,28.9,67.3
							c2.8,21.2,1.9,45.2-2.8,71.1c-7.9,43.9-23.7,78.2-24.3,79.6l-11.2-4.1c8-29.5-7.7-86.5-31.6-115.6
							c-41-30.9-102.9-46.5-184-46.5c-73.9,0-139.2,13.5-149,15.7c-2.3,1.7-5.3,3.7-9,6.1c-31.2,20.5-104.2,68.6-78.1,167.1
							L1157.9,561.8z M1431.9,250.6c-36.4,0-73.1,6.2-108.9,18.3l-0.9,0.3l-1,0c-70.4,0.5-120.3,21.5-148.1,62.3
							c-16.4,24-33.8,68.4-23.6,144.1c1.1,8,2.4,15.7,3.8,22.9c3-21.4,11-41.5,24-60c20.3-29,48.6-47.5,63.7-57.5
							c4.1-2.7,7.3-4.8,9.2-6.3l1.1-0.9l1.3-0.3c0.7-0.2,71.7-16.3,152.9-16.3c84.2,0,148.7,16.6,191.8,49.4l0.5,0.4l0.4,0.5
							c12.4,14.8,23.4,37.2,30.2,61.4c2.7,9.5,4.6,18.7,5.7,27.4c3.9-12.2,7.9-27,10.7-42.9c6.9-38.5,8.5-91.9-23.4-128.1
							c-19.5-22.1-46.7-40.7-78.6-53.8C1509.2,257.8,1470.8,250.6,1431.9,250.6z"/>
					</g>
					<g>
						<path fill="#91BAE5" d="M1392.9,165c-168.6,0-252.6,107.7-265.7,126.5c0,0,7.6,66.6,33.6,125.1c1.9,4.3,119,0.1,236.9-6.3
							c117.9,6.5,235,10.6,236.9,6.3c26-58.5,33.6-125.1,33.6-125.1C1639.4,262.8,1583.9,165,1392.9,165z"/>
						<path fill="#282F39" d="M1607.7,424.3C1607.7,424.3,1607.7,424.3,1607.7,424.3c-38.8,0-119.3-3.1-210.1-8.1
							c-90.9,5-171.3,8.1-210.1,8.1c-8.5,0-15.1-0.1-19.7-0.4c-6.6-0.4-10.8-1-12.5-4.9c-26.1-58.7-33.7-124.1-34.1-126.9l-0.3-2.3
							l1.3-1.9c6.5-9.2,31-41.6,76.1-71.8c56.7-38,122.1-57.2,194.5-57.2c72.9,0,135,14.4,184.5,42.7c41.7,23.8,66.3,52.7,82.6,71.7
							c4.7,5.5,8.8,10.3,12.3,13.8l2,2l-0.3,2.9c-0.3,2.8-8,68.2-34.1,126.9c-1.8,3.9-5.9,4.5-12.5,4.9
							C1622.9,424.2,1616.2,424.3,1607.7,424.3z M1397.6,404.2l0.3,0c90.8,5,171.2,8.1,209.8,8.1c0,0,0,0,0,0
							c13.8,0,19.8-0.4,22.4-0.7c21.6-49.7,29.9-105.1,31.6-118.1c-3.3-3.5-6.9-7.7-10.9-12.4c-15.8-18.5-39.6-46.3-79.5-69.1
							c-47.6-27.3-107.7-41.1-178.5-41.1c-70,0-133.2,18.6-187.8,55.2c-40.7,27.2-63.9,56.1-71.6,66.8c1.6,11.9,9.9,68.2,31.7,118.6
							c2.6,0.3,8.6,0.7,22.4,0.7c38.6,0,119-3.1,209.8-8.1L1397.6,404.2z"/>
					</g>
					<g>
						<path fill="#282F39" d="M1395.4,465.6c140.9-3.1,247.2-45.7,247.2-45.7s-0.8-48-244.3-45.7c-1,0-1.9,0-2.9,0c-1,0-1.9,0-2.9,0
							c-243.6-2.2-244.4,45.7-244.4,45.7S1254.5,462.5,1395.4,465.6L1395.4,465.6L1395.4,465.6
							C1395.4,465.6,1395.4,465.6,1395.4,465.6L1395.4,465.6z"/>
						<path fill="#282F39" d="M1395.4,471.6c0,0-0.1,0-0.1,0c-140.4-3.1-248.2-45.7-249.3-46.2c-2.3-0.9-3.8-3.2-3.8-5.7
							c0-2.6,1.8-16.1,32.5-28.4c38.6-15.5,106.4-23.3,201.5-23.3c5.4,0,10.9,0,16.4,0.1l2.8,0l2.8,0c5.5-0.1,11-0.1,16.4-0.1
							c95,0,162.8,7.9,201.5,23.3c30.7,12.3,32.5,25.8,32.5,28.4c0,2.5-1.5,4.7-3.8,5.7c-1.1,0.4-108.9,43.1-249.3,46.2
							C1395.5,471.5,1395.5,471.6,1395.4,471.6z M1156.5,416.5c24.4,8.8,119.6,40.4,238.9,43c119.3-2.6,214.6-34.2,238.9-43
							c-8.5-10.1-47.2-36.5-219.7-36.5c-5.3,0-10.8,0-16.3,0.1l-2.9,0c0,0-0.1,0-0.1,0l-2.9,0c-5.5-0.1-11-0.1-16.3-0.1
							C1203.6,380,1165,406.4,1156.5,416.5z"/>
					</g>
					<g>
						<path fill="#282F39" d="M1650.7,425.1c-163.9-64.9-346.4-64.9-510.3,0c0-27.9,0-45.4,0-47.8c179.7-71.2,334.9-65.3,514.6,5.9
							C1653.7,393.7,1651.4,404.5,1650.7,425.1z"/>
						<path fill="#282F39" d="M1140.3,431.1c-1.2,0-2.4-0.4-3.4-1c-1.6-1.1-2.6-3-2.6-5v-47.8c0-2.5,1.5-4.7,3.8-5.6
							c86.6-34.3,168-50.9,249.1-50.9c85,0,173.3,18.6,269.9,56.8c2.5,1,4.1,3.6,3.7,6.3c-0.3,2.7-0.7,5.4-1.1,8.3
							c-1.2,8.4-2.6,18-3.1,33.1c-0.1,1.9-1.1,3.7-2.7,4.8c-1.6,1.1-3.7,1.3-5.5,0.6c-80.9-32-166-48.3-253-48.3
							c-87,0-172.1,16.2-253,48.3C1141.8,431,1141.1,431.1,1140.3,431.1z M1395.5,370.5c85.7,0,169.6,15.5,249.6,46.1
							c0.7-11.2,1.9-19.2,2.8-26c0.2-1.2,0.3-2.3,0.5-3.4c-93.5-36.5-179-54.3-261.2-54.3c-78.3,0-157.2,15.9-240.9,48.6v34.9
							C1226.1,385.9,1309.9,370.5,1395.5,370.5z"/>
					</g>
					<g>
						<path fill="#FFB825" d="M1631.9,369.4v55.7c11.8,0,21.5-12.5,21.5-27.9C1653.4,381.9,1643.8,369.4,1631.9,369.4z"/>
						<path fill="#282F39" d="M1631.9,431.1c-3.3,0-6-2.7-6-6v-55.7c0-3.3,2.7-6,6-6c15.1,0,27.5,15.2,27.5,33.9
							C1659.4,416,1647.1,431.1,1631.9,431.1z M1637.9,377.2v40.2c5.5-3.4,9.5-11.2,9.5-20.1S1643.4,380.6,1637.9,377.2z"/>
					</g>
					<g>
						<path fill="#FFB825" d="M1153.5,369.4v55.7c-11.8,0-21.5-12.5-21.5-27.9C1132,381.9,1141.6,369.4,1153.5,369.4z"/>
						<path fill="#282F39" d="M1153.5,431.1c-15.1,0-27.5-15.2-27.5-33.9c0-18.7,12.3-33.9,27.5-33.9c3.3,0,6,2.7,6,6v55.7
							C1159.5,428.5,1156.8,431.1,1153.5,431.1z M1147.5,377.2c-5.5,3.4-9.5,11.2-9.5,20.1s4,16.7,9.5,20.1V377.2z"/>
					</g>
					<g>
						<path fill="#FFB825" d="M1436.9,220.5C1436.9,220.5,1436.8,220.5,1436.9,220.5c0-0.3,6.1-10.3,6.1-10.3
							c-18.9,9.4-37.1-9.8-37.2-9.8c0,0-0.4,0.4-1,1c-0.6-0.6-1-1-1-1c-0.1,0-18.3,19.2-37.2,9.8c0,0,6.2,10,6.2,10.3
							c0,0-0.1,0-0.1,0c21.6,28.3-9.5,25.3-9.5,46.9c0,29.7,25,34.8,41.6,34.7l0,0c16.6,0.1,41.6-5,41.6-34.7
							C1446.4,245.8,1415.3,248.8,1436.9,220.5z"/>
						<path fill="#282F39" d="M1405.1,308.2C1405.1,308.2,1405.1,308.2,1405.1,308.2l-0.3,0l-0.3,0c-30,0-47.3-14.8-47.3-40.7
							c0-11.2,6.6-17.5,11.4-22.1c3.2-3.1,5.2-5.1,5.6-7.4c0.5-3-1.7-7.8-6.3-13.9c-0.3-0.5-0.6-1-0.8-1.5c-0.9-1.5-3.4-5.6-5.7-9.3
							c-1.4-2.3-1.1-5.2,0.7-7.2c1.8-2,4.7-2.5,7.1-1.3c2.6,1.3,5.3,2,8.2,2c10.2,0,19.4-8.1,21.9-10.6c0.5-0.5,1.9-1.9,4.3-1.9
							c0.3,0,0.7,0,1,0.1c0.3,0,0.6-0.1,1-0.1c2.4,0,3.9,1.4,4.4,1.9c2.6,2.5,11.8,10.5,21.9,10.5c2.9,0,5.6-0.6,8.2-2
							c2.4-1.2,5.3-0.7,7.1,1.3c1.8,2,2.1,4.9,0.7,7.2c-2.3,3.6-4.8,7.7-5.7,9.3c-0.2,0.4-0.4,0.8-0.6,1.2c-0.1,0.1-0.1,0.2-0.2,0.3
							c-4.6,6.1-6.8,10.9-6.3,13.9c0.4,2.3,2.4,4.3,5.6,7.4c4.8,4.6,11.4,10.8,11.4,22.1c0,19.1-9.4,28.8-17.3,33.6
							C1425.3,307,1413.4,308.2,1405.1,308.2z M1404.8,296.2l0.3,0h0c6.7,0,16.3-0.9,23.7-5.4c7.8-4.7,11.5-12.3,11.5-23.3
							c0-5.8-2.9-8.8-7.7-13.4c-8.6-8.1-15.1-17-2-35.3c-11.1-0.5-20.5-6.7-25.8-11.2c-5.4,4.5-14.7,10.7-25.8,11.2
							c13.1,18.3,6.5,27.1-2,35.3c-4.8,4.5-7.7,7.6-7.7,13.4c0,19.1,11.9,28.7,35.3,28.7L1404.8,296.2z"/>
					</g>
				</g>
				<g>
					<g>
						<polygon fill="#2D4961" points="1643.1,1600.9 1145.1,1600.9 1221,2582.2 1323.9,2582.7 1368.7,1751.3 1423.1,1751.3 
							1467.9,2582.7 1570.8,2582.2 						"/>
						<path fill="#282F39" d="M1462.2,2588.7l-0.3-5.7l-44.5-825.7h-43l-44.8,831.4l-114.1-0.5l-76.9-993.4h511l-73.2,993.4
							L1462.2,2588.7z M1363,1745.3h65.8l44.8,831.3l91.6-0.4l71.4-969.4h-485.1l75.1,969.4l91.6,0.4L1363,1745.3z"/>
					</g>
					<g>
						<path fill="#3B3734" d="M1261.5,2547.8c-33.4-0.5-58.9,30.1-56.9,68.2l121,1.6C1323.6,2579.5,1294.9,2548.2,1261.5,2547.8z"/>
						<path fill="#303E5C" d="M1331.9,2623.7l-133.1-1.8l-0.3-5.6c-1.1-21.3,5.9-41.7,19.3-55.8c11.6-12.3,27.1-18.9,43.7-18.7
							c36.5,0.5,67.9,34.3,70.1,75.5L1331.9,2623.7z M1210.5,2610l108.5,1.4c-4.5-32-29.2-57.3-57.6-57.7l-0.7,0
							c-12.9,0-25,5.3-34.1,15C1216.6,2579.3,1210.9,2594.1,1210.5,2610z"/>
					</g>
					<g>
						<path fill="#3B3734" d="M1530.3,2547.8c33.4-0.5,58.9,30.1,56.9,68.2l-121,1.6C1468.2,2579.5,1496.9,2548.2,1530.3,2547.8z"/>
						<path fill="#303E5C" d="M1459.9,2623.7l0.3-6.4c2.2-41.2,33.6-75,70.1-75.5c0.3,0,0.5,0,0.8,0c16.2,0,31.4,6.6,42.8,18.7
							c13.4,14.1,20.4,34.4,19.3,55.8l-0.3,5.6L1459.9,2623.7z M1531.1,2553.8l-0.7,0c-28.4,0.4-53.2,25.7-57.6,57.7l108.5-1.4
							c-0.4-16-6.1-30.8-16.1-41.3C1556.1,2559.1,1544,2553.8,1531.1,2553.8z"/>
					</g>
					<g>
						<path fill="#91BAE5" d="M1475.7,809.6c0,28-32.6,50.8-72.9,50.8c-40.2,0-72.8-22.7-72.8-50.8c0,0-146.4-1.9-185,35.7
							c-38.6,37.6,0,755.5,0,755.5h498.1c0,0,31.2-725.4,11.8-761.2C1635.6,803.9,1475.7,809.6,1475.7,809.6z"/>
						<path fill="#282F39" d="M1648.9,1606.9h-509.5l-0.3-5.7c-0.1-1.8-9.7-181.7-14.5-363.8c-2.8-107-3.4-193.9-1.8-258.3
							c2.7-109.4,11.1-131.2,18.1-138.1c15.8-15.4,49.1-26.2,99-32.3c38.8-4.7,76.2-5.1,86.7-5.1c2.3,0,3.5,0,3.5,0l5.9,0.1l0,5.9
							c0,24.7,30,44.8,66.8,44.8c36.9,0,66.9-20.1,66.9-44.8v-5.8l5.8-0.2c0.4,0,9.6-0.3,23.9-0.3c23.8,0,58.7,0.9,90,5.1
							c40.2,5.4,63.3,14.7,70.7,28.5c3.2,5.9,12.9,23.8,2.1,397c-5.3,183.7-13.1,365.4-13.2,367.3L1648.9,1606.9z M1150.7,1594.9
							h486.6c1.4-32.4,8.1-196,12.9-361.4c3.1-107.8,4.8-195.2,5-259.8c0.3-108.5-3.8-127.8-5.6-131.1
							c-9.1-16.8-66.6-27.3-150.2-27.3c-7.7,0-14,0.1-18.1,0.2c-1.9,13.3-10,25.6-23.5,35c-14.8,10.3-34.3,16-54.9,16
							c-20.7,0-40.2-5.7-54.9-16c-13.4-9.4-21.6-21.6-23.5-34.8c-65.4,0.2-149.7,9.2-175.2,34c-3.5,3.4-11.8,22.8-14.5,129.8
							c-1.6,64.1-1,150.8,1.8,257.6C1140.9,1400.9,1149.1,1562.8,1150.7,1594.9z"/>
					</g>
					<g>
						<path fill="#FCE3E0" d="M1055,1571.3c1.8,12.2,17.1,29.4,7.8,39.8c-5.3,6-13.1-4.4-16.1-10.4c-1.2,12.9,21.9,40.9,8.2,53
							c-12.3,10.9-36.4-9.7-42.3-21.3c-4-7.8-15-45.7-15.1-51.7c-0.2-13.7,7.1-10.7,18.8-10.7C1026.6,1570,1055,1571.3,1055,1571.3z
							"/>
						<path fill="#282F39" d="M1046.4,1662.7c-9,0-17.8-5.4-23.6-10c-6.8-5.3-12.7-12.1-15.6-17.7c-4.1-8-15.6-46.7-15.7-54.3
							c-0.1-3.9,0.3-9.5,4-13.3c3.3-3.4,7.8-3.8,11.4-3.8c1.4,0,2.8,0.1,4.3,0.1c1.6,0.1,3.3,0.1,5.1,0.2c10.2,0,37.8,1.3,38.9,1.3
							l4.9,0.2l0.7,4.9c0.5,3.3,2.6,7.8,4.6,12.2c4.7,10.1,10.5,22.7,1.8,32.5c-2.8,3.1-6,3.8-8.1,3.8c-0.2,0-0.5,0-0.7,0
							c5.6,13.2,11.8,29.2,0.4,39.2C1055.5,1661.2,1051.2,1662.7,1046.4,1662.7C1046.4,1662.7,1046.4,1662.7,1046.4,1662.7z
							 M1004.1,1576c-0.1,0.3-0.6,1.5-0.5,4.6c0.1,4.9,10.6,41.5,14.4,49.1c4.1,8.1,18.8,21.1,28.5,21.1c1.9,0,3.3-0.5,4.5-1.6
							c5-4.4,1.2-14.4-4.1-27c-3.4-8.1-6.7-15.7-6.1-22l1.9-20.9l9.5,18.7c2.1,4.3,5.1,7.6,6.7,8.6c2.6-3.8,0-10.1-4.1-19
							c-1.6-3.5-3.2-7-4.4-10.5c-8.4-0.4-26.4-1.1-33.9-1.1c-2,0-3.9-0.1-5.6-0.2c-1.4-0.1-2.6-0.1-3.8-0.1
							C1005.1,1575.7,1004.4,1575.9,1004.1,1576z"/>
					</g>
					<g>
						<path fill="#91BAE5" d="M1069.5,1573.1l-80.9-3.8c-2.8-79-1.4-724,156.4-724l-13.8,119.3
							C1100.9,1092.6,1087.4,1435.5,1069.5,1573.1z"/>
						<g>
							<path fill="#FFB825" d="M1028.9,1088.3c-3.2,0-6.4-0.3-9.7-0.9l2.1-11.8c18,3.3,34.8-5.5,38.9-20.4l12.9-46.5l-0.9-0.3
								l0.4-0.9c-22.5-8.9-35.5-28-35.6-28.2l10.2-6.3c0.1,0.1,13.6,19.2,35.1,25.1l6.6,1.8l-2.6,6.1l-14.5,52.3
								C1066.8,1076.5,1049.2,1088.3,1028.9,1088.3z"/>
						</g>
						<path fill="#282F39" d="M1074.7,1579.4l-91.9-4.3l-0.2-5.5c-1-28.5-2.1-177.8,12.1-334.7c7.8-86.9,19-161,33-220.1
							c17.4-73,39.4-123.8,65.6-150.9c15.6-16.2,33-24.4,51.7-24.4h6.7l-14.7,126.7c-18.9,79.4-31.3,243.1-42.2,387.6
							c-6.6,86.5-12.7,168.3-19.5,220.2L1074.7,1579.4z M994.4,1563.6l69.8,3.2c6.4-51.8,12.4-130.7,18.7-214.1
							c11-144.7,23.4-308.7,42.4-389.2l12.9-111.9c-12.9,1.7-24.8,8.4-36.2,20.3C998.5,979.3,991.5,1458.2,994.4,1563.6z"/>
					</g>
					<g>
						<path fill="#FCE3E0" d="M1745,1560.1c-1.9,12.2-17.1,29.4-7.8,39.8c5.3,6,13.1-4.4,16.1-10.4c1.1,12.9-22,40.9-8.2,53
							c12.3,10.9,36.4-9.7,42.3-21.3c4-7.8,15-45.7,15.1-51.7c0.2-13.7-7.1-10.7-18.8-10.7C1773.4,1558.7,1745,1560.1,1745,1560.1z"
							/>
						<path fill="#282F39" d="M1753.6,1651.5c-4.8,0-9.1-1.6-12.5-4.6c-11.4-10.1-5.2-26,0.4-39.2c-0.2,0-0.5,0-0.7,0c0,0,0,0,0,0
							c-2.2,0-5.3-0.7-8.1-3.8c-8.7-9.8-2.9-22.4,1.8-32.5c2-4.3,4.1-8.8,4.6-12.2l0.7-4.9l4.9-0.2c1.2-0.1,28.7-1.3,38.9-1.3
							c1.8,0,3.4-0.1,5.1-0.2c1.5-0.1,2.9-0.1,4.3-0.1c3.6,0,8.1,0.4,11.4,3.8c3.7,3.8,4.1,9.4,4,13.3c-0.1,7.6-11.7,46.4-15.7,54.3
							c-2.8,5.6-8.8,12.4-15.6,17.7C1771.3,1646,1762.5,1651.5,1753.6,1651.5z M1757.4,1568l1.9,20.9c0.6,6.3-2.7,13.9-6.1,22
							c-5.4,12.6-9.1,22.6-4.1,27c1.2,1.1,2.7,1.6,4.5,1.6c9.6,0,24.3-12.9,28.5-21.1c3.8-7.5,14.3-44.1,14.4-49.1
							c0-3.1-0.4-4.3-0.6-4.6c-0.2-0.1-1-0.3-2.9-0.3c-1.1,0-2.4,0.1-3.7,0.1c-1.7,0.1-3.6,0.2-5.6,0.2c-7.6,0-25.5,0.8-33.9,1.1
							c-1.1,3.5-2.8,7-4.4,10.5c-4.1,9-6.7,15.3-4.1,19c1.6-1.1,4.5-4.4,6.7-8.6L1757.4,1568z"/>
					</g>
					<g>
						<path fill="#91BAE5" d="M1730.5,1561.8l80.9-3.8c2.8-79,1.4-724-156.4-724l13.8,119.3
							C1699.1,1081.3,1712.6,1424.2,1730.5,1561.8z"/>
						<path fill="#282F39" d="M1725.3,1568.1l-0.7-5.5c-6.8-51.9-12.9-133.6-19.5-220.2c-10.9-144.5-23.3-308.3-42.2-387.6l-0.1-0.7
							l-14.5-126h6.7c18.7,0,36,8.2,51.7,24.4c26.2,27.1,48.3,77.9,65.6,150.9c14.1,59.2,25.2,133.3,33,220.1
							c14.2,157,13.1,306.2,12.1,334.7l-0.2,5.5L1725.3,1568.1z M1674.6,952.4c19,80.4,31.4,244.4,42.4,389.2
							c6.3,83.4,12.3,162.3,18.7,214.1l69.8-3.2c2.9-105.4-4.1-584.3-107.6-691.5c-11.5-11.9-23.4-18.6-36.2-20.3L1674.6,952.4z"/>
					</g>
					<g>
						<rect x="1140.3" y="1561.8" fill="#282F39" width="510.3" height="51.4"/>
						<path fill="#282F39" d="M1650.7,1619.2h-510.3c-3.3,0-6-2.7-6-6v-51.4c0-3.3,2.7-6,6-6h510.3c3.3,0,6,2.7,6,6v51.4
							C1656.7,1616.6,1654,1619.2,1650.7,1619.2z M1146.3,1607.2h498.3v-39.4h-498.3V1607.2z"/>
					</g>
					<g>
						<polygon fill="#76A3CC" points="1334.4,786.4 1396.5,859.6 1276.9,935.9 1299.2,812.6 						"/>
						<path fill="#282F39" d="M1276.9,941.9c-1.2,0-2.3-0.3-3.3-1c-2-1.3-3-3.7-2.6-6.1l22.3-123.3c0.3-1.5,1.1-2.8,2.3-3.8
							l35.2-26.1c2.5-1.9,6.1-1.5,8.1,0.9l62.1,73.2c1.1,1.3,1.6,3.1,1.4,4.8s-1.2,3.2-2.7,4.2l-119.7,76.2
							C1279.1,941.6,1278,941.9,1276.9,941.9z M1304.7,816l-19.5,107.5l102.3-65.2l-54-63.7L1304.7,816z"/>
					</g>
					<g>
						<polygon fill="#76A3CC" points="1469,786.4 1407,859.6 1526.6,935.9 1504.3,812.6 						"/>
						<path fill="#282F39" d="M1526.6,941.9c-1.1,0-2.2-0.3-3.2-0.9l-119.7-76.2c-1.5-0.9-2.5-2.4-2.7-4.2s0.2-3.5,1.4-4.8
							l62.1-73.2c2-2.4,5.6-2.8,8.1-0.9l35.2,26.1c1.2,0.9,2.1,2.2,2.3,3.8l22.3,123.3c0.4,2.3-0.6,4.7-2.6,6.1
							C1529,941.5,1527.8,941.9,1526.6,941.9z M1416,858.3l102.3,65.2L1498.8,816l-28.8-21.4L1416,858.3z"/>
					</g>
					<g>
						<ellipse fill="#808B92" cx="1312.1" cy="884.2" rx="10.5" ry="10.3"/>
						<path fill="#282F39" d="M1312.1,900.5c-9.1,0-16.5-7.3-16.5-16.3s7.4-16.3,16.5-16.3c9.1,0,16.5,7.3,16.5,16.3
							S1321.2,900.5,1312.1,900.5z M1312.1,879.9c-2.5,0-4.5,1.9-4.5,4.3s2,4.3,4.5,4.3s4.5-1.9,4.5-4.3S1314.6,879.9,1312.1,879.9z
							"/>
					</g>
					<g>
						<ellipse fill="#808B92" cx="1492.8" cy="884.2" rx="10.5" ry="10.3"/>
						<path fill="#282F39" d="M1492.8,900.5c-9.1,0-16.5-7.3-16.5-16.3s7.4-16.3,16.5-16.3c9.1,0,16.5,7.3,16.5,16.3
							S1501.9,900.5,1492.8,900.5z M1492.8,879.9c-2.5,0-4.5,1.9-4.5,4.3s2,4.3,4.5,4.3s4.5-1.9,4.5-4.3S1495.3,879.9,1492.8,879.9z
							"/>
					</g>
					<g>
						<rect x="1391.8" y="862.7" fill="#91BAE5" width="19.4" height="690.6"/>
						<path fill="#282F39" d="M1417.2,1559.2h-31.4V856.7h31.4V1559.2z M1397.8,1547.2h7.4V868.7h-7.4V1547.2z"/>
					</g>
					<g>
						<rect x="1193.6" y="1029.3" fill="#FFB825" width="102.7" height="15.7"/>
						<path fill="#282F39" d="M1296.3,1051h-102.7c-3.3,0-6-2.7-6-6v-15.7c0-3.3,2.7-6,6-6h102.7c3.3,0,6,2.7,6,6v15.7
							C1302.3,1048.3,1299.7,1051,1296.3,1051z M1199.6,1039h90.7v-3.7h-90.7V1039z"/>
					</g>
					<g>
						<g>
							<path fill="#76A3CC" d="M1179.6,1078.8v32.2v7v50.2c0,21.1,31.5,38.2,70.3,38.2c0.4,0,0.8,0,1.2,0c0.4,0,0.8,0,1.2,0
								c38.8,0,70.3-17.1,70.3-38.2V1118v-7v-32.2H1179.6z"/>
							<path fill="#282F39" d="M1252.3,1212.4l-1.2,0l-1.2,0c-42.8,0-76.3-19.4-76.3-44.2v-89.4c0-3.3,2.7-6,6-6h143
								c3.3,0,6,2.7,6,6v89.4C1328.6,1193,1295.1,1212.4,1252.3,1212.4z M1251.1,1200.4C1251.1,1200.4,1251.2,1200.4,1251.1,1200.4
								l1.2,0c34.8,0,64.3-14.8,64.3-32.2v-83.4h-131v83.4c0,17.5,29.4,32.2,64.3,32.2L1251.1,1200.4
								C1251.1,1200.4,1251.1,1200.4,1251.1,1200.4z"/>
						</g>
						<g>
							<polygon fill="#282F39" points="1327.6,1101.8 1250.3,1123.7 1173,1101.8 1173,1071 1327.6,1071 							"/>
							<path fill="#282F39" d="M1250.3,1129.7c-0.6,0-1.1-0.1-1.6-0.2l-77.3-21.9c-2.6-0.7-4.4-3.1-4.4-5.8V1071c0-3.3,2.7-6,6-6
								h154.6c3.3,0,6,2.7,6,6v30.8c0,2.7-1.8,5-4.4,5.8l-77.3,21.9C1251.4,1129.6,1250.8,1129.7,1250.3,1129.7z M1179,1097.3
								l71.3,20.2l71.3-20.2V1077H1179V1097.3z"/>
						</g>
						<g>
							<ellipse fill="#FFB825" cx="1250.3" cy="1097.4" rx="10.5" ry="10.3"/>
							<path fill="#282F39" d="M1250.3,1113.7c-9.1,0-16.5-7.3-16.5-16.3s7.4-16.3,16.5-16.3c9.1,0,16.5,7.3,16.5,16.3
								S1259.4,1113.7,1250.3,1113.7z M1250.3,1093.1c-2.5,0-4.5,1.9-4.5,4.3s2,4.3,4.5,4.3c2.5,0,4.5-1.9,4.5-4.3
								S1252.8,1093.1,1250.3,1093.1z"/>
						</g>
					</g>
					<g>
						<path fill="#282F39" d="M1244.5,1529.6H1167v25.9l3.3,1.6v6.1v5.9v42.2c0,17.7,15.8,32.1,35.2,32.1c0.2,0,0.4,0,0.6,0
							c0.2,0,0.4,0,0.6,0c19.4,0,35.2-14.4,35.2-32.1V1569v-5.9v-6.5l2.5-1.2V1529.6z"/>
						<path fill="#282F39" d="M1206.8,1649.3l-0.6,0l-0.6,0c-22.7,0-41.2-17.1-41.2-38.1v-50.4c-2-1-3.3-3.1-3.3-5.4v-25.9
							c0-3.3,2.7-6,6-6h77.5c3.3,0,6,2.7,6,6v25.9c0,2-0.9,3.8-2.5,4.9v50.9C1248,1632.2,1229.5,1649.3,1206.8,1649.3z
							 M1206.1,1637.3C1206.2,1637.3,1206.2,1637.3,1206.1,1637.3l0.6,0c16.1,0,29.2-11.7,29.2-26.1v-54.6c0-2,0.9-3.8,2.5-4.9
							v-16.2H1173v16.1c2,1,3.3,3.1,3.3,5.4v54.2c0,14.4,13.1,26.1,29.2,26.1L1206.1,1637.3
							C1206.1,1637.3,1206.1,1637.3,1206.1,1637.3z"/>
					</g>
					<g>
						<path fill="#282F39" d="M1320.5,1529.6H1243v25.9l3.3,1.6v6.1v5.9v42.2c0,17.7,15.8,32.1,35.2,32.1c0.2,0,0.4,0,0.6,0
							c0.2,0,0.4,0,0.6,0c19.4,0,35.2-14.4,35.2-32.1V1569v-5.9v-6.5l2.5-1.2V1529.6z"/>
						<path fill="#282F39" d="M1282.8,1649.3l-0.6,0l-0.6,0c-22.7,0-41.2-17.1-41.2-38.1v-50.4c-2-1-3.3-3.1-3.3-5.4v-25.9
							c0-3.3,2.7-6,6-6h77.5c3.3,0,6,2.7,6,6v25.9c0,2-0.9,3.8-2.5,4.9v50.9C1324,1632.2,1305.5,1649.3,1282.8,1649.3z
							 M1282.2,1637.3C1282.2,1637.3,1282.2,1637.3,1282.2,1637.3l0.6,0c16.1,0,29.2-11.7,29.2-26.1v-54.6c0-2,0.9-3.8,2.5-4.9
							v-16.2H1249v16.1c2,1,3.3,3.1,3.3,5.4v54.2c0,14.4,13.1,26.1,29.2,26.1L1282.2,1637.3
							C1282.1,1637.3,1282.1,1637.3,1282.2,1637.3z"/>
					</g>
					<g>
						<g>
							<path fill="#76A3CC" d="M1475.8,1078.8v32.2v7v50.2c0,21.1,31.5,38.2,70.3,38.2c0.4,0,0.8,0,1.2,0c0.4,0,0.8,0,1.2,0
								c38.8,0,70.3-17.1,70.3-38.2V1118v-7v-32.2H1475.8z"/>
							<path fill="#282F39" d="M1548.6,1212.4l-1.2,0l-1.2,0c-42.8,0-76.3-19.4-76.3-44.2v-89.4c0-3.3,2.7-6,6-6h143
								c3.3,0,6,2.7,6,6v89.4C1624.8,1193,1591.3,1212.4,1548.6,1212.4z M1547.3,1200.4C1547.4,1200.4,1547.4,1200.4,1547.3,1200.4
								l1.2,0c34.8,0,64.3-14.8,64.3-32.2v-83.4h-131v83.4c0,17.5,29.4,32.2,64.3,32.2L1547.3,1200.4
								C1547.3,1200.4,1547.3,1200.4,1547.3,1200.4z"/>
						</g>
						<g>
							<polygon fill="#282F39" points="1623.8,1101.8 1546.5,1123.7 1469.2,1101.8 1469.2,1071 1623.8,1071 							"/>
							<path fill="#282F39" d="M1546.5,1129.7c-0.5,0-1.1-0.1-1.6-0.2l-77.3-21.9c-2.6-0.7-4.4-3.1-4.4-5.8V1071c0-3.3,2.7-6,6-6
								h154.6c3.3,0,6,2.7,6,6v30.8c0,2.7-1.8,5-4.4,5.8l-77.3,21.9C1547.6,1129.6,1547.1,1129.7,1546.5,1129.7z M1475.2,1097.3
								l71.3,20.2l71.3-20.2V1077h-142.6V1097.3z"/>
						</g>
						<g>
							<ellipse fill="#FFB825" cx="1546.5" cy="1097.4" rx="10.5" ry="10.3"/>
							<path fill="#282F39" d="M1546.5,1113.7c-9.1,0-16.5-7.3-16.5-16.3s7.4-16.3,16.5-16.3c9.1,0,16.5,7.3,16.5,16.3
								S1555.6,1113.7,1546.5,1113.7z M1546.5,1093.1c-2.5,0-4.5,1.9-4.5,4.3s2,4.3,4.5,4.3s4.5-1.9,4.5-4.3
								S1549,1093.1,1546.5,1093.1z"/>
						</g>
					</g>
					<g>
						<path fill="#FFB825" d="M1578.2,970.3C1578.2,970.3,1578.1,970.3,1578.2,970.3c0-0.2,4.2-7,4.2-7c-13,6.5-25.5-6.8-25.6-6.7
							c0,0-0.2,0.3-0.7,0.7c-0.4-0.4-0.7-0.7-0.7-0.7c0,0-12.6,13.2-25.6,6.7c0,0,4.2,6.9,4.3,7c0,0,0,0,0,0
							c14.8,19.4-6.5,17.4-6.5,32.2c0,20.4,17.2,23.9,28.5,23.9l0,0c11.4,0,28.5-3.4,28.5-23.9
							C1584.7,987.7,1563.3,989.7,1578.2,970.3z"/>
						<path fill="#282F39" d="M1556.4,1032.4C1556.4,1032.4,1556.4,1032.4,1556.4,1032.4l-0.2,0l-0.2,0c-21.5,0-34.3-11.2-34.3-29.9
							c0-8.5,5.1-13.3,8.4-16.5c1.6-1.5,3.1-3,3.3-4c0.1-0.5,0.1-2.7-4-8.1c-0.3-0.4-0.6-0.9-0.8-1.3c-0.7-1.1-2.3-3.9-3.8-6.2
							c-1.4-2.3-1.1-5.2,0.7-7.2c1.8-2,4.7-2.5,7.1-1.3c1.6,0.8,3.1,1.2,4.8,1.2c5,0,10.4-3.5,13.8-6.7c1.2-1.2,2.7-1.8,4.3-1.8
							c0.2,0,0.5,0,0.7,0c0.2,0,0.4,0,0.7,0c1.6,0,3.1,0.6,4.3,1.8c1.6,1.6,7.5,6.7,13.8,6.7c1.7,0,3.3-0.4,4.8-1.2
							c2.4-1.2,5.3-0.7,7.1,1.3c1.8,2,2.1,4.9,0.7,7.2c-1.5,2.4-3.1,5.1-3.8,6.2c-0.2,0.5-0.4,0.9-0.8,1.3c-4.1,5.3-4.1,7.5-4,8.1
							c0.2,1,1.7,2.5,3.3,4c3.4,3.2,8.4,8,8.4,16.5c0,14-7,21.1-12.8,24.7C1570.8,1031.5,1562.3,1032.4,1556.4,1032.4z
							 M1556.1,1020.4l0.2,0c4.4,0,10.6-0.6,15.3-3.4c4.7-2.9,7-7.6,7-14.4c0-3.2-1.6-4.9-4.7-7.8c-5.6-5.3-10.8-11.9-3.4-24.1
							c-6-1.1-11.1-4.2-14.5-6.8c-3.4,2.7-8.5,5.7-14.5,6.8c7.4,12.1,2.2,18.8-3.4,24.1c-3.1,2.9-4.7,4.6-4.7,7.8
							c0,17.9,16.8,17.9,22.3,17.9L1556.1,1020.4z"/>
					</g>
					<g>
						<polygon fill="#282F39" points="1271.8,843.4 1169.7,861.6 1164.5,832.8 1266.3,812.1 						"/>
						<path fill="#282F39" d="M1169.7,867.6c-2.9,0-5.4-2-5.9-4.9l-5.2-28.8c-0.6-3.2,1.5-6.3,4.7-6.9l101.7-20.7
							c1.6-0.3,3.2,0,4.6,0.9c1.3,0.9,2.3,2.3,2.5,3.9l5.6,31.3c0.3,1.6-0.1,3.2-1,4.5c-0.9,1.3-2.3,2.2-3.9,2.5l-102.2,18.3
							C1170.4,867.6,1170,867.6,1169.7,867.6z M1171.5,837.5l3.1,17.2l90.4-16.1l-3.5-19.3L1171.5,837.5z"/>
					</g>
					<g>
						<polygon fill="#282F39" points="1528.7,838 1630.8,856.3 1636,827.5 1533.6,811 						"/>
						<path fill="#282F39" d="M1630.8,862.3c-0.4,0-0.7,0-1.1-0.1l-102.2-18.3c-1.6-0.3-3-1.2-3.9-2.5s-1.3-2.9-1-4.5l4.9-27
							c0.6-3.2,3.6-5.4,6.9-4.9l102.4,16.4c1.6,0.3,3,1.1,3.9,2.5s1.3,2.9,1,4.5l-5.2,28.8C1636.2,860.3,1633.7,862.3,1630.8,862.3z
							 M1535.7,833.2l90.3,16.1l3-16.9l-90.6-14.5L1535.7,833.2z"/>
					</g>
					<g>
						<path fill="#282F39" d="M1126.2,1561.8c-2.5,6.5-10.3,11.3-19.4,11.3s-16.9-4.8-19.4-11.3h-6.7V1727c-0.2,1.5-0.4,3.1-0.4,4.7
							c0,15.7,11.9,28.5,26.5,28.5c13.7,0,24.9-11.1,26.3-25.4h0.2v-173H1126.2z"/>
						<path fill="#282F39" d="M1106.8,1766.2c-17.9,0-32.5-15.5-32.5-34.5c0-1.7,0.1-3.5,0.4-5.2v-164.7c0-3.3,2.7-6,6-6h6.7
							c2.5,0,4.7,1.5,5.6,3.8c1.7,4.4,7.4,7.5,13.8,7.5s12.1-3.1,13.8-7.5c0.9-2.3,3.1-3.8,5.6-3.8h7.1c3.3,0,6,2.7,6,6v173
							c0,0.8-0.2,1.6-0.4,2.3C1136.5,1753.8,1122.9,1766.2,1106.8,1766.2z M1086.7,1571.3V1727c0,0.3,0,0.6-0.1,0.9
							c-0.2,1.3-0.3,2.6-0.3,3.8c0,12.4,9.2,22.5,20.5,22.5c10.5,0,19.2-8.6,20.4-20c0-0.3,0.1-0.7,0.2-1v-162.3
							c-4.9,5.1-12.3,8.2-20.5,8.2C1098.8,1579.1,1091.5,1576.2,1086.7,1571.3z"/>
					</g>
					<g>
						<ellipse fill="#564043" cx="1106.8" cy="1544.7" rx="18.8" ry="25"/>
						<path fill="#282F39" d="M1106.8,1575.7c-13.7,0-24.8-13.9-24.8-31c0-17.1,11.1-31,24.8-31s24.8,13.9,24.8,31
							C1131.6,1561.8,1120.5,1575.7,1106.8,1575.7z M1106.8,1525.7c-7,0-12.8,8.7-12.8,19s5.9,19,12.8,19s12.8-8.7,12.8-19
							S1113.8,1525.7,1106.8,1525.7z"/>
					</g>
					<g>
						<rect x="1102.3" y="1544.7" fill="#564043" width="9" height="25.3"/>
						<path fill="#282F39" d="M1111.3,1576.1h-9c-3.3,0-6-2.7-6-6v-25.3c0-3.3,2.7-6,6-6h9c3.3,0,6,2.7,6,6v25.3
							C1117.3,1573.4,1114.6,1576.1,1111.3,1576.1z"/>
					</g>
					<g>
						<path fill="#B4B6B8" d="M1450.9,1615.3c0,6.6-5.4,12-12,12h-74.7c-6.6,0-12-5.4-12-12v-55.5c0-6.6,5.4-12,12-12h74.7
							c6.6,0,12,5.4,12,12V1615.3z"/>
						<path fill="#282F39" d="M1438.9,1633.3h-74.7c-9.9,0-18-8.1-18-18v-55.5c0-9.9,8.1-18,18-18h74.7c9.9,0,18,8.1,18,18v55.5
							C1456.9,1625.2,1448.8,1633.3,1438.9,1633.3z M1364.1,1553.8c-3.3,0-6,2.7-6,6v55.5c0,3.3,2.7,6,6,6h74.7c3.3,0,6-2.7,6-6
							v-55.5c0-3.3-2.7-6-6-6H1364.1z"/>
					</g>
				</g>
			</g>
		</g>
	</g>
</g>
</svg>
