<?xml version="1.0" encoding="utf-8"?>
<!-- Generator: Adobe Illustrator 19.2.1, SVG Export Plug-In . SVG Version: 6.00 Build 0)  -->
<svg version="1.1" id="Layer_1" xmlns="http://www.w3.org/2000/svg" xmlns:xlink="http://www.w3.org/1999/xlink" x="0px" y="0px"
	 viewBox="0 0 65 150" style="enable-background:new 0 0 65 150;" xml:space="preserve">
<style type="text/css">
	.st0{fill:#FFFFFF;}
	.st1{fill:#CBDEAE;}
	.st2{fill:#869A42;}
	.st3{fill:#6D6E71;}
	.st4{fill:#B6B8BA;}
	.st5{fill:#414042;}
	.st6{fill:#C6C5C6;}
	.st7{fill:#333233;}
	.st8{fill:#D7AC79;}
	.st9{fill:#FFD425;}
	.st10{fill:#C18049;}
	.st11{fill:#C39A61;}
	.st12{fill:#FFBB28;}
	.st13{fill:#B16F3B;}
	.st14{fill:#474A4C;}
	.st15{fill:#E0E1E2;}
	.st16{fill:#CED0D1;}
	.st17{fill:#6DD093;}
	.st18{fill:#73D9FF;}
	.st19{fill:#B3A092;}
	.st20{fill:#73747A;}
	.st21{fill:#E58B7E;}
	.st22{fill:#A3D3E3;}
	.st23{fill:#EDC98B;}
	.st24{fill:#C2E0BB;}
	.st25{fill:#F1B2AD;}
	.st26{fill:#EDB86E;}
	.st27{fill:#F1999C;}
	.st28{fill:#9F755A;}
</style>
<g id="XMLID_4_">
	<g>
		<g>
			<path class="st0" d="M5.27,67H20l0.02,0.01c-0.05,0.07-0.09,0.15-0.13,0.22L18.99,70H6.53C5.13,70,4,71.13,4,72.53v72.2
				c0,2.36,1.91,4.27,4.27,4.27h-3C2.91,149,1,147.09,1,144.73V71.27C1,68.91,2.91,67,5.27,67z"/>
		</g>
		<g>
			<path class="st0" d="M45,70l1.6,5.2l-2.49-7.97c-0.04-0.07-0.08-0.15-0.13-0.22L44,67h15.73c2.36,0,4.27,1.91,4.27,4.27v1.26
				c0-1.4-1.13-2.53-2.53-2.53H45z"/>
		</g>
		<g>
			<path class="st0" d="M46.91,75.82c0.1,0.21,0.15,0.42,0.16,0.63c-0.02-0.05-0.04-0.1-0.07-0.15l-0.28-0.48l-2.25-6.2
				c-0.03-0.05-0.07-0.11-0.11-0.17c-0.63-0.96-1.82-1.56-3.13-1.56h-3.16c0-1.04-0.47-2-1.26-2.69L37,65h3.51
				c1.45,0,2.77,0.77,3.47,2.01c0.05,0.07,0.09,0.15,0.13,0.22l2.49,7.97L46.91,75.82z"/>
		</g>
		<g>
			<path class="st0" d="M30,65c0-1.1,0.9-2,2-2c0.74,0,1.39,0.41,1.73,1.01C33.68,64,33.62,64,33.57,64c-1.42,0-2.69,0.57-3.51,1.47
				C30.02,65.32,30,65.16,30,65z"/>
		</g>
		<g>
			<path class="st0" d="M30.06,65.47c-0.62,0.66-0.99,1.5-0.99,2.42h-3.16c-1.31,0-2.5,0.6-3.13,1.56
				c-0.04,0.06-0.08,0.12-0.11,0.17l-2.25,6.2l-0.28,0.48c-0.45,0.78,0.21,1.7,1.22,1.7h-2.92c-1.12,0-1.85-1.18-1.35-2.18
				l0.22-0.67l0.09,0.05c0,0,1.55-5.13,1.6-5.2h-0.01l0.9-2.77c0.04-0.07,0.08-0.15,0.13-0.22c0.7-1.24,2.02-2.01,3.47-2.01H27
				c0-2.76,2.24-5,5-5s5,2.24,5,5l-0.19,0.2c-0.78-0.71-1.87-1.16-3.08-1.19C33.39,63.41,32.74,63,32,63c-1.1,0-2,0.9-2,2
				C30,65.16,30.02,65.32,30.06,65.47z"/>
		</g>
		<g>
			<path class="st0" d="M47,75h10v3H45.78c0.95,0,1.59-0.81,1.29-1.55c-0.01-0.21-0.06-0.42-0.16-0.63L46.6,75.2L47,75z"/>
		</g>
		<g>
			<path class="st0" d="M17,75l0.31,0.15l-0.22,0.67c-0.5,1,0.23,2.18,1.35,2.18H11v64H8V75H17z"/>
		</g>
		<g>
			<path class="st15" d="M57,131v11H19.54H11V78h7.44h2.92h24.2h0.22H57V131z M28.98,94.12c0.01-0.18,0.02-0.36,0.02-0.54
				c0-3.61-2.92-6.53-6.54-6.53c-3.61,0-6.53,2.92-6.53,6.53c0,3.62,2.92,6.54,6.53,6.54c0.18,0,0.36-0.01,0.54-0.02
				c0.15,0.01,0.3,0.02,0.46,0.02c3.06,0,5.54-2.47,5.54-5.54C29,94.42,28.99,94.27,28.98,94.12z"/>
		</g>
		<g>
			<path class="st16" d="M47.07,76.45c0.3,0.74-0.34,1.55-1.29,1.55h-0.22C46.45,78,47.09,77.26,47.07,76.45z"/>
		</g>
		<g>
			<path class="st4" d="M46.72,75.82L47,76.3c0.03,0.05,0.05,0.1,0.07,0.15c0.02,0.81-0.62,1.55-1.51,1.55h-24.2
				c-1.01,0-1.67-0.92-1.22-1.7l0.28-0.48l2.25-6.2c0.03-0.05,0.07-0.11,0.11-0.17c0.63-0.96,1.82-1.56,3.13-1.56h3.16
				c0-0.92,0.37-1.76,0.99-2.42c0.21,0.88,1,1.53,1.94,1.53c1.1,0,2-0.9,2-2c0-0.36-0.09-0.7-0.27-0.99
				c1.21,0.03,2.3,0.48,3.08,1.19c0.79,0.69,1.26,1.65,1.26,2.69h3.16c1.31,0,2.5,0.6,3.13,1.56c0.04,0.06,0.08,0.12,0.11,0.17
				L46.72,75.82z"/>
		</g>
		<g>
			<path class="st4" d="M34,65c0,1.1-0.9,2-2,2c-0.94,0-1.73-0.65-1.94-1.53c0.82-0.9,2.09-1.47,3.51-1.47c0.05,0,0.11,0,0.16,0.01
				C33.91,64.3,34,64.64,34,65z"/>
		</g>
		<g>
			<path class="st17" d="M28.98,94.12c0.01,0.15,0.02,0.3,0.02,0.46c0,3.07-2.48,5.54-5.54,5.54c-0.16,0-0.31-0.01-0.46-0.02
				C26.19,99.84,28.72,97.31,28.98,94.12z"/>
		</g>
		<g>
			<path class="st18" d="M23.46,89.05c2.9,0,5.28,2.23,5.52,5.07c-0.26,3.19-2.79,5.72-5.98,5.98c-2.84-0.24-5.07-2.61-5.07-5.52
				C17.93,91.53,20.41,89.05,23.46,89.05z"/>
		</g>
		<g>
			<path class="st0" d="M29,93.58c0,0.18-0.01,0.36-0.02,0.54c-0.24-2.84-2.62-5.07-5.52-5.07c-3.05,0-5.53,2.48-5.53,5.53
				c0,2.91,2.23,5.28,5.07,5.52c-0.18,0.01-0.36,0.02-0.54,0.02c-3.61,0-6.53-2.92-6.53-6.54c0-3.61,2.92-6.53,6.53-6.53
				C26.08,87.05,29,89.97,29,93.58z"/>
		</g>
		<g>
			<path class="st19" d="M17.31,75.15L18.99,70H19c-0.05,0.07-1.6,5.2-1.6,5.2L17.31,75.15z"/>
		</g>
		<g>
			<path class="st19" d="M18.99,70l-1.68,5.15L17,75H8v67h3h8.54H57v-11V78v-3H47l-0.4,0.2L45,70h16.47c1.4,0,2.53,1.13,2.53,2.53
				v72.2c0,2.36-1.91,4.27-4.27,4.27H43H8.27C5.91,149,4,147.09,4,144.73v-72.2C4,71.13,5.13,70,6.53,70H18.99z"/>
		</g>
	</g>
	<g>
		<path class="st20" d="M59.73,66H44.508c-0.929-1.245-2.409-2-3.998-2h-2.593c-0.478-2.834-2.949-5-5.917-5s-5.439,2.166-5.917,5
			H23.49c-1.59,0-3.069,0.755-3.998,2H5.27C2.364,66,0,68.364,0,71.27v73.46c0,2.905,2.364,5.27,5.27,5.27H43h16.73
			c2.905,0,5.27-2.364,5.27-5.27V71.27C65,68.364,62.636,66,59.73,66z M23.49,66H27c0.553,0,1-0.448,1-1c0-2.206,1.794-4,4-4
			s4,1.794,4,4c0,0.552,0.447,1,1,1h3.51c1.081,0,2.077,0.575,2.652,1.585c0,0,0.012,0.02,0.025,0.044l2.458,7.87
			c0.016,0.051,0.036,0.102,0.061,0.15l0.3,0.6c0.04,0.084,0.062,0.165,0.064,0.227c0.004,0.138-0.051,0.275-0.15,0.377
			C45.854,76.919,45.738,77,45.56,77H18.44c-0.256,0-0.388-0.169-0.433-0.242c-0.045-0.072-0.137-0.265-0.023-0.491
			c0.021-0.043,0.04-0.089,0.056-0.135l2.77-8.498c0.015-0.025,0.026-0.046,0.027-0.049c0.02-0.027,0.037-0.055,0.054-0.084
			C21.413,66.575,22.409,66,23.49,66z M16.307,77.81c0.46,0.745,1.258,1.19,2.134,1.19H45.56c0.683,0,1.318-0.267,1.792-0.752
			c0.473-0.484,0.734-1.148,0.718-1.849c-0.007-0.135-0.033-0.267-0.061-0.399H56v65H9V76h6.984
			C15.858,76.615,15.965,77.258,16.307,77.81z M63,144.73c0,1.803-1.467,3.27-3.27,3.27H43H5.27C3.467,148,2,146.533,2,144.73V71.27
			C2,69.467,3.467,68,5.27,68h13.317l-1.955,6H8c-0.553,0-1,0.448-1,1v67c0,0.553,0.447,1,1,1h49c0.553,0,1-0.447,1-1V75
			c0-0.552-0.447-1-1-1h-9.727l-1.874-6H59.73c1.803,0,3.27,1.467,3.27,3.27V144.73z"/>
		<path class="st20" d="M32,68c1.654,0,3-1.346,3-3c0-0.542-0.142-1.061-0.409-1.5C34.057,62.574,33.066,62,32,62
			c-1.654,0-3,1.346-3,3c0,0.25,0.031,0.495,0.087,0.702C29.41,67.055,30.607,68,32,68z M32,64c0.354,0,0.685,0.193,0.861,0.504
			c0.006,0.011,0.013,0.022,0.02,0.033C32.96,64.665,33,64.82,33,65c0,0.551-0.448,1-1,1c-0.463,0-0.86-0.313-0.974-0.787
			C31.009,65.149,31,65.076,31,65C31,64.449,31.448,64,32,64z"/>
		<path class="st20" d="M22.46,101.12c0.199,0,0.4-0.011,0.6-0.022c0.007,0,0.015-0.001,0.021-0.001
			c3.694-0.301,6.594-3.201,6.897-6.922C29.989,93.977,30,93.777,30,93.58c0-4.152-3.383-7.53-7.54-7.53
			c-4.152,0-7.53,3.378-7.53,7.53C14.93,97.737,18.308,101.12,22.46,101.12z M22.46,88.05c3.055,0,5.54,2.48,5.54,5.53
			c0,0.162-0.009,0.324-0.017,0.459c-0.221,2.71-2.346,4.838-5.054,5.062c-0.156,0.01-0.313,0.019-0.47,0.019
			c-3.05,0-5.53-2.485-5.53-5.54C16.93,90.53,19.41,88.05,22.46,88.05z"/>
		<path class="st20" d="M35,93h13c0.553,0,1-0.447,1-1s-0.447-1-1-1H35c-0.553,0-1,0.447-1,1S34.447,93,35,93z"/>
		<path class="st20" d="M16,107h30c0.553,0,1-0.447,1-1s-0.447-1-1-1H16c-0.553,0-1,0.447-1,1S15.447,107,16,107z"/>
		<path class="st20" d="M16,112h23c0.553,0,1-0.447,1-1s-0.447-1-1-1H16c-0.553,0-1,0.447-1,1S15.447,112,16,112z"/>
		<path class="st20" d="M15,116c0,0.553,0.447,1,1,1h34c0.553,0,1-0.447,1-1s-0.447-1-1-1H16C15.447,115,15,115.447,15,116z"/>
		<path class="st20" d="M46,120H16c-0.553,0-1,0.447-1,1s0.447,1,1,1h30c0.553,0,1-0.447,1-1S46.553,120,46,120z"/>
		<path class="st20" d="M35,98h6c0.553,0,1-0.447,1-1s-0.447-1-1-1h-6c-0.553,0-1,0.447-1,1S34.447,98,35,98z"/>
		<path class="st20" d="M19.553,95.895l2,1C21.693,96.965,21.847,97,22,97c0.12,0,0.24-0.021,0.355-0.065
			c0.262-0.1,0.469-0.304,0.573-0.563l2-5c0.205-0.513-0.045-1.095-0.558-1.3c-0.508-0.204-1.095,0.043-1.3,0.558l-1.596,3.99
			l-1.028-0.514c-0.494-0.246-1.094-0.047-1.342,0.447C18.858,95.047,19.059,95.647,19.553,95.895z"/>
	</g>
</g>
</svg>
